PathFileType	4	(X/Y/Z)	markers.trc																																																																																																																																																																
DataRate	CameraRate	NumFrames	NumMarkers	Units	OrigDataRate	OrigDataStartFrame	OrigNumFrames																																																																																																																																																												
200	200	4	54	mm	200	1048	100																																																																																																																																																												
Frame#	Time	FHD			LBHD			RBHD			C7			T10			CLAV			LSHO			LUUPA			LMUPA			LDUPA			LLEP			LMEP			LRAD			LUL			LRFIN			RSHO			RUPA1			RMUPA			RDUPA			RLEP			RMEP			RRAD			RUL			RUFIN			RASI			USACR			LSACR			RSACR			LTHI1			LTHI2			LTHI3			LTHI4			LTIB1			LTIB2			LTIB3			LTIB4			LLMAL			LHEE			LMT1			LMT2			RTHI			RTHI2			RTHI3			RTHI4			RLFC			RTIB1			RTIB2			RTIB3			RTIB4			RLMAL			RHEE			RMT1			RMT2			RMT5		
		X1	Y1	Z1	X2	Y2	Z2	X3	Y3	Z3	X4	Y4	Z4	X5	Y5	Z5	X6	Y6	Z6	X7	Y7	Z7	X8	Y8	Z8	X9	Y9	Z9	X10	Y10	Z10	X11	Y11	Z11	X12	Y12	Z12	X13	Y13	Z13	X14	Y14	Z14	X15	Y15	Z15	X16	Y16	Z16	X17	Y17	Z17	X18	Y18	Z18	X19	Y19	Z19	X20	Y20	Z20	X21	Y21	Z21	X22	Y22	Z22	X23	Y23	Z23	X24	Y24	Z24	X25	Y25	Z25	X26	Y26	Z26	X27	Y27	Z27	X28	Y28	Z28	X29	Y29	Z29	X30	Y30	Z30	X31	Y31	Z31	X32	Y32	Z32	X33	Y33	Z33	X34	Y34	Z34	X35	Y35	Z35	X36	Y36	Z36	X37	Y37	Z37	X38	Y38	Z38	X39	Y39	Z39	X40	Y40	Z40	X41	Y41	Z41	X42	Y42	Z42	X43	Y43	Z43	X44	Y44	Z44	X45	Y45	Z45	X46	Y46	Z46	X47	Y47	Z47	X48	Y48	Z48	X49	Y49	Z49	X50	Y50	Z50	X51	Y51	Z51	X52	Y52	Z52	X53	Y53	Z53	X54	Y54	Z54
																																																																																																																																																																			
1048	5.235	-651.596872	1592.325791	342.41791	-828.063314	1593.854316	250.549806	-791.57996	1582.55267	370.304508	-876.078577	1461.284113	291.421544	-1053.98894	1159.329514	283.954596	-770.87949	1334.537238	292.416207	-780.755387	1414.178666	162.03689	-816.974258	1263.383768	32.185063	-781.402902	1234.2246	39.349953	-816.871264	1200.023401	4.892588	-816.907313	1079.982562	-20.480977	-853.998601	1048.897991	39.151371	-621.259939	1076.776782	136.566544	-598.42653	1013.061825	109.399813	-563.048566	1108.260737	114.74649	-818.676548	1402.93661	448.468358	-974.454342	1341.051373	533.402841	-980.585608	1294.904434	527.916551	-1036.323196	1314.501004	540.37155	-1158.839148	1254.371424	555.658997	-1170.808817	1250.489182	485.604762	-1131.832585	987.323449	555.889484	-1198.699494	996.55358	585.756215	-1113.751396	944.678286	618.314504	-920.407963	940.459283	368.733593	-1087.655563	1074.779525	294.300619	-1100.026013	1045.898212	266.785268	-1094.424891	1042.454605	325.062832	-1086.270814	727.213023	79.462605	-1084.610916	641.85458	80.204653	-1042.275023	626.842723	94.436466	-1131.625044	602.604515	87.179914	-1321.242893	412.624151	145.700233	-1370.696157	473.594754	107.892736	-1370.228068	434.731833	126.106726	-1445.794547	429.114829	168.824896	-1600.354666	485.838016	168.027964	-1616.822535	566.143797	212.311851	-1665.109334	355.335019	260.471813	-1675.802051	348.586626	215.200473	-893.221292	731.798148	453.882805	-833.759522	704.197408	449.207635	-806.89582	719.420354	434.239975	-820.289095	620.047785	431.168553	-749.644436	540.013851	406.02985	-639.834698	358.664035	362.17536	-676.70821	260.274014	397.811752	-635.87455	273.862576	379.260617	-613.250814	233.884417	346.726297	-636.646607	118.84469	372.311711	-691.881362	66.207274	321.358656	-472.255223	117.200393	303.438291	-469.584317	107.153832	342.162884	-500.946772	65.455455	387.054831
1049	5.24	-620.600293	1592.503653	343.838914	-796.988053	1593.165609	251.805245	-760.5414	1582.07866	371.609209	-844.208789	1461.02103	292.154941	-1022.275275	1159.319059	283.849828	-739.269226	1333.905925	292.522323	-748.538942	1411.5272	160.999354	-792.180134	1261.197507	32.149538	-758.221747	1229.837937	40.27012	-795.548795	1197.492146	5.611723	-801.498245	1077.943819	-20.421506	-840.418455	1049.311616	39.127612	-602.341469	1049.857926	130.446901	-587.012364	984.929083	101.069752	-541.72599	1075.835005	108.268665	-787.953445	1402.467657	448.822554	-941.918152	1334.374015	534.07442	-946.347434	1288.204127	528.241879	-1002.722307	1305.313219	541.417262	-1122.515626	1239.544869	556.656591	-1134.662079	1235.51706	486.632843	-1077.420893	974.984271	555.294869	-1144.745574	979.365196	585.415463	-1056.140667	933.350127	617.123304	-888.994668	940.881098	370.439625	-1056.232314	1073.890662	293.895868	-1068.31669	1044.923826	266.368229	-1062.885954	1041.700048	324.727001	-1049.107078	724.301181	78.665617	-1044.83073	639.07983	78.013001	-1001.870407	624.999575	91.498597	-1090.496302	598.25363	85.081795	-1275.184986	412.92634	143.83459	-1322.345904	476.018609	106.261427	-1323.330267	437.145281	124.529721	-1398.674988	435.257865	168.033007	-1550.359978	498.958265	168.442567	-1564.214445	579.758297	213.802725	-1618.75788	369.737028	259.075155	-1629.739648	363.81905	213.701983	-865.074787	728.950393	454.824761	-805.996663	700.601546	450.430182	-778.626215	715.738652	436.277241	-793.457738	616.650774	430.977178	-723.504944	535.968997	406.748085	-618.505912	351.71062	361.657272	-658.759722	254.107157	395.655257	-617.265905	266.826042	377.958831	-595.631074	226.67764	345.150895	-622.562757	112.824524	369.694987	-679.024352	62.129217	318.367011	-458.026439	107.448537	301.774856	-455.896357	97.987576	340.594976	-488.761455	58.00197	386.090166
1050	5.245	-589.705496	1592.456368	345.143032	-766.040407	1592.279873	252.973488	-729.604114	1581.400674	372.824491	-812.599654	1460.435186	292.853573	-990.55919	1158.851041	283.639554	-707.750872	1333.103318	292.59217	-716.875027	1408.771791	159.92281	-767.311429	1258.894692	32.214681	-734.93618	1225.636463	41.399073	-773.846012	1194.920638	6.668611	-785.583367	1076.27968	-20.100954	-825.882054	1050.045022	39.448737	-585.361378	1023.263879	123.529711	-577.669703	958.013774	92.052994	-522.963457	1043.619203	100.8052	-757.332119	1401.71085	449.090854	-909.050985	1327.187575	534.669599	-911.64232	1281.043486	528.57297	-968.583047	1295.5319	542.427844	-1085.191052	1223.964539	557.783599	-1097.556469	1219.708736	487.775784	-1021.581851	963.254039	554.547072	-1088.965336	962.558577	584.92075	-997.059144	922.899035	615.803411	-857.582923	941.10125	372.045447	-1024.807098	1072.747595	293.355431	-1036.693866	1043.639885	265.849229	-1031.433899	1040.74852	324.273064	-1011.647405	720.999128	77.864996	-1004.492776	636.01573	75.91348	-960.926709	623.007712	88.760498	-1048.650267	593.530895	83.044429	-1227.841666	412.886922	141.991433	-1272.827388	477.857118	104.543843	-1275.140826	439.031562	122.92145	-1350.152046	440.569582	167.077103	-1498.829489	510.495778	168.598758	-1510.555889	591.643719	215.059713	-1570.543574	382.300739	257.134132	-1581.593693	377.206372	211.625162	-836.815879	726.461232	455.6475	-778.141272	697.431703	451.583176	-750.251627	712.508479	438.351779	-766.439424	613.701413	430.799015	-697.37221	532.110224	407.510692	-598.440278	344.43367	360.78932	-642.544733	248.012056	393.266456	-600.433868	259.563871	376.246906	-580.211777	219.155906	343.034484	-611.269924	106.977501	366.616366	-669.3132	58.248377	315.324133	-446.90906	97.567951	299.281821	-445.33752	89.01373	338.352465	-479.617785	51.266154	384.873128
1051	5.25	-558.908834	1592.212094	346.317535	-735.226352	1591.250592	254.060168	-698.761101	1580.545952	373.951435	-781.25693	1459.554131	293.518766	-958.877235	1157.933351	283.328239	-676.333641	1332.141908	292.624526	-685.743466	1405.960544	158.819182	-742.320569	1256.476048	32.360454	-711.474285	1221.624291	42.686713	-751.683559	1192.308721	7.954531	-769.116956	1074.960317	-19.584773	-810.350479	1051.006179	40.070551	-570.337972	997.425618	115.914526	-570.273782	932.736666	82.505578	-506.781891	1012.143743	92.477092	-726.84327	1400.685493	449.289791	-875.830769	1319.523041	535.191484	-876.44438	1273.461081	528.911235	-933.854457	1285.194246	543.432588	-1046.772953	1207.720029	559.058328	-1059.4087	1203.144306	489.05695	-964.414103	952.347002	553.580906	-1031.374456	946.385637	584.210062	-936.617284	913.552518	614.3065	-826.212641	941.118595	373.556189	-993.398133	1071.393868	292.683978	-1005.158391	1042.0878	265.241858	-1000.090182	1039.648173	323.719019	-973.737291	717.375603	77.069888	-963.475151	632.747455	73.935577	-919.344646	620.956	86.292467	-1005.97573	588.544398	81.067695	-1179.256725	412.525557	140.181169	-1222.230776	479.111472	102.739038	-1225.741531	440.389201	121.291898	-1300.344381	445.021381	165.981588	-1446.004021	520.393521	168.48122	-1456.093214	601.783839	216.049555	-1520.682787	392.969326	254.691939	-1531.588571	388.669245	209.022496	-808.466976	724.260625	456.40204	-750.231316	694.560542	452.694647	-721.817217	709.53677	440.436293	-739.335995	611.039974	430.73463	-671.341864	528.288546	408.310257	-579.580588	336.988136	359.571598	-627.871888	242.179651	390.715003	-585.235037	252.277959	374.152235	-566.818321	211.549598	340.418528	-602.484811	101.571505	363.159111	-662.346204	54.669577	312.313054	-438.5905	88.109256	296.151697	-437.573894	80.726498	335.577692	-473.120319	45.671356	383.522062
